<?xml version="1.0" encoding="UTF-8" standalone="no"?>
<svg xmlns:rdf="http://www.w3.org/1999/02/22-rdf-syntax-ns#" xmlns="http://www.w3.org/2000/svg" xml:space="preserve" height="71.74" viewBox="0 0 146.38625 71.740311" width="146.39" version="1.1" xmlns:cc="http://creativecommons.org/ns#" xmlns:dc="http://purl.org/dc/elements/1.1/"><g transform="matrix(1.25 0 0 -1.25 -218.08 179.35)"><g style="" transform="matrix(.25 0 0 .25 174.87 86.088)"><g style=""><g style=""/><g fill="#004c93"><path d="m114.79 10.177c-57.775 0-104.6 46.834-104.6 104.6 0 57.767 46.823 104.6 104.6 104.6 57.762 0 104.58-46.835 104.58-104.6s-46.823-104.6-104.58-104.6zm0 219.39c-63.403 0-114.79-51.39-114.79-114.79 0-63.404 51.387-114.78 114.79-114.78 63.399 0 114.78 51.376 114.78 114.78 0 63.403-51.377 114.79-114.78 114.79"/><path d="m147.77 86.09-22.499 36.612v-36.612h-8.037v52.9h7.342l22.585-36.602v36.602h7.965v-52.9h-7.356"/><path d="m180.53 103.74v-17.654h-8.116v17.812l-17.586 35.088h8.951l12.577-25.39 12.803 25.39h8.945l-17.574-35.246"/><path d="m51.489 84.55c-11.776 0-18.477 4.33-20.486 13.225l-0.207 0.928 3.806 0.528 0.177-0.767c1.992-8.463 10.186-10.238 16.71-10.238 7.215 0 14.97 3.705 14.97 11.827 0 8.382-7.828 10.234-16.107 12.211-8.608 2.033-17.501 4.14-17.501 13.941 0 9.899 9.161 13.404 16.993 13.404 8.753 0 14.668-3.224 18.098-9.882l0.422-0.812-3.447-1.508-0.367 0.703c-2.817 5.313-7.35 7.688-14.706 7.688-3.089 0-13.18-0.695-13.18-9.593 0-6.867 6.824-8.49 14.738-10.385 8.844-2.118 18.873-4.511 18.873-15.767 0-10.662-9.736-15.503-18.786-15.503"/><path d="m92.351 84.55c-12.814 0-19.316 8.036-19.316 23.868v30.682h3.826v-30.682c0-13.67 4.917-20.056 15.49-20.056 10.576 0 15.494 6.386 15.494 20.056v30.682h3.827v-30.682c0-16.043-6.333-23.868-19.321-23.868"/></g><g fill="#848687"><path d="m250.38 136.32v-18.554h-2.076v18.554h-6.383v1.99h14.843v-1.99h-6.384"/><path d="m267.95 117.76v8.258c0 2.771-0.833 4.245-3.8 4.245-2.13 0-3.568-1.658-3.568-3.698v-8.805h-1.958v20.544h1.958v-7.66c0.859 0.995 2.252 1.571 3.568 1.571 3.964 0 5.764-2.178 5.764-6.039v-8.416h-1.964"/><path d="m278.23 130.32c-2.585 0-3.854-1.738-4.059-4.205h7.628c-0.117 2.256-1.071 4.205-3.569 4.205zm5.521-6.123h-9.66c0.08-2.872 1.342-4.802 4.406-4.802 1.376 0 2.797 0.532 3.684 1.645l1.329-1.327c-1.246-1.588-3.009-2.243-5.013-2.243-4.577 0-6.371 3.111-6.371 7.328 0 3.963 1.717 7.434 6.104 7.434 3.951 0 5.574-3.207 5.534-6.767l-0.013-1.268"/><path d="m300.56 117.48c-3.772 0-7.283 1.618-8.027 5.683l2.018 0.456c0.589-3.028 3.12-4.174 5.976-4.174 2.538 0 5.231 1.323 5.231 4.168 0 6.132-12.413 2.032-12.413 9.645 0 3.684 3.337 5.28 6.603 5.28 3.383 0 5.764-1.1 7.244-4.283l-1.835-0.852c-1.145 2.467-2.824 3.09-5.409 3.09-2.066 0-4.579-0.772-4.579-3.235 0-5.301 12.443-1.704 12.443-9.645 0-3.97-3.628-6.133-7.252-6.133"/><path d="m312.45 130.1v-8.868c0-1.516 0.471-1.54 1.856-1.54v-1.931h-0.791c-2.128 0-2.981 1.506-2.981 3.471v8.868h-1.931v1.945h1.931v4.172h1.916v-4.172h2.196v-1.945h-2.196"/><path d="m324.95 124.57c-0.341-0.239-0.914-0.341-1.33-0.341h-2.68c-1.364 0-2.769-0.968-2.769-2.468 0-1.462 1.452-2.394 2.809-2.394 1.596 0 2.804 0.352 3.97 1.425v3.778zm0.499-7.112-0.347 1.172c-1.214-0.806-2.674-1.172-4.122-1.172-2.456 0-4.787 1.695-4.787 4.303 0 2.706 2.249 4.296 4.787 4.296h2.461c0.567 0 1.1 0.123 1.509 0.512v1.501c0 1.583-1.657 2.197-3 2.197-1.568 0-2.907-0.58-3.426-2.197l-1.807 0.669c0.784 2.508 2.816 3.48 5.28 3.48 2.463 0 4.904-1.481 4.904-4.149v-8.669l0.437-1.352-1.889-0.591"/><path d="m332.48 130.1v-8.868c0-1.516 0.487-1.54 1.878-1.54v-1.931h-0.812c-2.113 0-2.961 1.506-2.961 3.471v8.868h-1.965v1.945h1.965v4.172h1.895v-4.172h2.224v-1.945h-2.224"/><path d="m342.06 130.32c-2.604 0-3.839-1.738-4.07-4.205h7.639c-0.117 2.256-1.051 4.205-3.569 4.205zm5.521-6.123h-9.646c0.055-2.872 1.324-4.802 4.394-4.802 1.377 0 2.788 0.532 3.669 1.645l1.338-1.327c-1.242-1.588-2.995-2.243-5.007-2.243-4.558 0-6.37 3.111-6.37 7.328 0 3.963 1.704 7.434 6.101 7.434 3.938 0 5.574-3.207 5.534-6.767l-0.013-1.268"/><path d="m363.24 117.48c-5.702 0-7.402 3.867-7.402 8.882v11.95h2.014v-11.95c0-3.807 0.888-6.843 5.388-6.843 4.523 0 5.388 3.036 5.388 6.843v11.95h2.041v-11.95c0-5.015-1.706-8.882-7.429-8.882"/><path d="m382.36 117.76v8.258c0 2.771-0.826 4.292-3.804 4.292-2.11 0-3.548-1.705-3.548-3.745v-8.805h-1.979v14.254h1.979v-1.37c0.852 0.995 2.223 1.59 3.548 1.59 3.985 0 5.748-2.197 5.748-6.058v-8.416h-1.944"/><path d="m387.37 132.02h2.006v-14.254h-2.006v14.254zm1.017 3.876c-0.749 0-1.364 0.62-1.364 1.37 0 0.725 0.615 1.351 1.364 1.351 0.75 0 1.342-0.626 1.342-1.351 0-0.75-0.592-1.37-1.342-1.37"/><path d="m398.68 117.76h-1.868l-5.348 14.254h2.101l4.173-11.199 4.202 11.199h2.116l-5.376-14.254"/><path d="m410.8 130.32c-2.578 0-3.848-1.738-4.057-4.205h7.617c-0.109 2.256-1.044 4.205-3.56 4.205zm5.51-6.123h-9.631c0.064-2.872 1.339-4.802 4.392-4.802 1.38 0 2.793 0.532 3.685 1.645l1.332-1.327c-1.236-1.588-3.009-2.243-5.017-2.243-4.553 0-6.363 3.111-6.363 7.328 0 3.963 1.727 7.434 6.092 7.434 3.956 0 5.573-3.207 5.552-6.767l-0.042-1.268"/><path d="m426.15 129.83c-0.588 0.341-1.325 0.526-1.952 0.526-1.802 0-3.531-1.052-3.531-3.042v-9.55h-1.939v14.254h1.939v-1.075c0.974 1.075 2.066 1.329 3.531 1.329 0.831 0 2.088-0.205 2.729-0.799l-0.777-1.643"/><path d="m433.08 117.52c-2.907 0-5.048 1.061-5.839 4.01l1.952 0.627c0.516-2.046 1.855-2.762 3.887-2.762 1.461 0 3.37 0.668 3.37 2.42 0 3.684-8.744 1.406-8.744 6.556 0 2.687 2.612 3.861 4.952 3.861 2.453 0 4.227-0.846 5.335-3.096l-1.768-0.865c-0.772 1.587-1.854 2.049-3.567 2.049-1.209 0-2.974-0.449-2.974-1.949 0-2.947 8.731-1.144 8.731-6.556 0-2.842-2.744-4.295-5.335-4.295"/><path d="m440.84 132.02h1.998v-14.254h-1.998v14.254zm1.009 3.876c-0.736 0-1.365 0.62-1.365 1.37 0 0.725 0.629 1.351 1.365 1.351 0.77 0 1.349-0.626 1.349-1.351 0-0.75-0.579-1.37-1.349-1.37"/><path d="m448.93 130.1v-8.868c0-1.516 0.464-1.54 1.855-1.54v-1.931h-0.803c-2.131 0-2.974 1.506-2.974 3.471v8.868h-1.952v1.945h1.952v4.172h1.922v-4.172h2.203v-1.945h-2.203"/><path d="m458.68 114.24c-0.696-1.837-1.991-3.002-4.032-2.975h-0.853l0.047 1.971 0.566-0.015c1.352 0 1.91 0.473 2.374 1.726l1.078 2.812-5.183 14.254h2.086l4.164-11.459 4.192 11.459h2.122l-6.561-17.773"/><path d="m248.66 100.02c-3.45 0-4.035-2.54-4.035-5.459 0-2.893 0.585-5.403 4.035-5.403 3.453 0 4.068 2.51 4.068 5.403 0 2.919-0.587 5.459-4.068 5.459zm0.043-12.764c-4.611 0-6.039 3.265-6.039 7.305 0 4.073 1.428 7.414 6.039 7.414 4.598 0 6.008-3.341 6.008-7.374 0-4.08-1.41-7.345-6.008-7.345"/><path d="m263.03 106.1c-2.441 0-3.342-1.132-3.342-3.473v-0.914h2.915v-1.937h-2.915v-12.312h-1.99v12.312h-1.31v1.937h1.31v0.886c0 3.46 1.847 5.416 5.332 5.416v-1.915"/><path d="m283.75 87.462-8.747 14.236v-14.236h-3.13v20.551h2.873l8.763-14.22v14.22h3.117v-20.551h-2.876"/><path d="m297.62 97.831c-0.592 0.838-1.351 1.246-2.414 1.246-1.939 0-2.893-1.009-3.226-2.665h5.975c-0.034 0.629-0.177 1.18-0.335 1.419zm-5.728-4.325c0.074-0.791 0.245-1.553 0.6-2.088 0.49-0.756 1.562-1.324 2.959-1.324 1.188 0 2.129 0.335 3.07 1.367l2.421-1.801c-1.615-1.794-3.43-2.472-5.442-2.472-2.373-0.047-4.44 0.963-5.546 2.642-1.024 1.507-1.105 3.499-1.105 4.788 0 1.404 0.115 3.288 1.105 4.787 1.145 1.726 3.028 2.578 5.278 2.578 2.054 0 3.801-0.892 4.913-2.591 1.063-1.589 0.927-4.024 0.88-5.886h-9.133"/><path d="m318.36 87.462h-2.674l-3.48 9.173-3.451-9.173h-2.68l-4.768 14.549h3.234l2.972-9.189 3.398 9.189h2.606l3.409-9.221 3.03 9.221h3.231l-4.827-14.549"/><path d="m338.63 94.318v-6.856h-3.152v6.918l-6.832 13.633h3.464l4.892-9.847 4.986 9.847h3.477l-6.835-13.695"/><path d="m351.51 97.863c-0.413 0.766-1.364 1.223-2.694 1.223-1.303 0-2.215-0.457-2.668-1.223-0.503-0.775-0.586-2.045-0.586-3.267 0-1.145 0.083-2.495 0.586-3.294 0.465-0.722 1.365-1.208 2.668-1.208 1.33 0 2.281 0.486 2.694 1.208 0.512 0.799 0.61 2.155 0.61 3.294 0 1.222-0.098 2.517-0.61 3.267zm2.607-8.066c-1.051-1.692-3.02-2.609-5.279-2.609-2.191-0.047-4.236 0.917-5.293 2.609-0.929 1.505-1.031 3.532-1.031 4.799 0 1.37 0.116 3.31 1.031 4.796 1.057 1.699 3.068 2.619 5.293 2.619 2.259 0 4.201-0.92 5.279-2.619 0.914-1.486 1.051-3.391 1.051-4.774 0-1.289-0.097-3.316-1.051-4.821"/><path d="m364.73 98.541c-0.904 0.499-1.394 0.571-1.948 0.571-1.193 0-2.733-0.702-2.733-2.071v-9.579h-2.942v14.401h2.942v-0.45c0.81 0.387 1.76 0.598 2.733 0.598 1.031 0 1.948-0.17 3.268-0.756l-1.32-2.714"/><path d="m375.89 87.462-5.422 7.817v-7.817h-3.009v20.551h3.009v-12.494l3.716 6.492h3.258l-3.823-6.643 5.887-7.906h-3.616"/></g></g><path d="m128.25 273.7c-29.826-3.81-56.134-16.62-77.031-37.52-20.215-20.21-32.543-44.93-37.072-74.32-1.2351-8.0154-1.2126-27.844 0.04098-36.116 1.1681-7.7077 4.2523-19.955 6.688-26.557 4.446-12.051 12.54-26.378 20.874-36.946 4.705-5.966 16.277-17.168 22.749-22.021 16.871-12.652 35.861-21.062 55.591-24.621 15.142-2.7311 34.278-2.526 49.477 0.53049 27.567 5.5436 54.04 21.055 72.468 42.461 14.276 16.583 24.459 36.89 28.956 57.745 2.7794 12.888 3.6792 30.533 2.1706 42.564-2.9572 23.583-11.514 45.059-25.201 63.249-4.0584 5.3937-5.5833 7.1312-12.017 13.692-19.599 19.987-44.864 32.866-73.263 37.348-7.0558 1.1136-27.356 1.4162-34.43 0.5133zm-54.534-93.13c6.0659-2.0273 10.74-5.8978 12.851-10.643 2.3544-5.2908 1.5565-13.595-1.6999-17.692-3.5867-4.5132-7.2411-6.2331-20.632-9.7098-10.404-2.7012-14.544-4.5672-16.419-7.3999-2.4193-3.6558-2.114-8.8605 0.71706-12.225 4.1678-4.9531 16.218-6.4505 24.061-2.9898 2.6456 1.1674 5.7089 3.9293 7.3185 6.5983 0.59213 0.98189 1.1293 1.8586 1.1936 1.9484 0.1669 0.23259 4.2964-1.9147 4.2964-2.2341 0-1.0599-2.5747-4.8916-4.6357-6.8992-5.6923-5.5444-15.57-7.8542-25.022-5.851-9.0648 1.9213-14.11 7.0695-14.613 14.912-0.32186 5.0153 0.52104 7.7771 3.3255 10.896 3.1241 3.4747 6.9573 5.1607 18.515 8.1436 10.527 2.7168 14.913 4.6222 17.296 7.5129 4.9439 5.9978 2.4367 15.69-5.0465 19.507-5.3245 2.7164-13.823 3.2667-20.245 1.311-5.4264-1.6524-9.5804-5.6044-10.934-10.402-0.59042-2.0928-0.70898-2.1988-2.1393-1.9128-0.83286 0.16657-1.9447 0.30286-2.4707 0.30286-1.2512 0-1.2298 1.2711 0.08034 4.7729 2.7091 7.2407 8.372 11.383 17.836 13.047 4.3899 0.77182 12.57 0.27497 16.367-0.99415zm47.937 0.80856c9.3333-1.9785 14.627-7.5508 17.126-18.028 0.66821-2.8013 0.86183-7.7234 1.0541-26.796l0.23553-23.364-2.722 0.15571-2.722 0.15571-0.27732 23.973c-0.3039 26.272-0.28294 26.085-3.5578 31.759-2.9416 5.0972-7.8977 7.4578-15.548 7.4054-8.0104-0.0548-13.159-2.9414-16.002-8.9724-2.6107-5.5371-2.7167-6.653-2.9775-31.34l-0.24378-23.081h-2.5386-2.5386l0.19389 23.591c0.18333 22.305 0.25417 23.808 1.3002 27.582 1.3617 4.9126 3.2749 8.5064 6.0466 11.358 5.0913 5.2385 14.337 7.4733 23.171 5.6006zm35.282-23.691 0.13282-22.378 13.731 22.378 13.731 22.378h4.7594 4.7594l0.0278-32.262 0.0278-32.262 10.656 21.168 10.656 21.168 0.0278 11.094 0.0278 11.094h5.1007 5.1007v-10.969-10.969l10.967-21.928c6.0316-12.061 10.966-22.044 10.966-22.186 0-0.14155-2.584-0.25736-5.7422-0.25736h-5.7422l-7.8374 15.685-7.8374 15.685-7.6697-15.685-7.6697-15.685h-10.625-10.625l-0.13282 22.364-0.13282 22.364-13.772-22.359-13.772-22.359-4.9732-0.005-4.9732-0.005v33.155 33.155h5.3504 5.3504l0.13283-22.378v0.00017z" transform="matrix(.8 0 0 -.8 0 230)" fill="#fff"/></g></g></svg>
